<svg width="512" height="512" viewBox="0 0 512 512" fill="none" xmlns="http://www.w3.org/2000/svg">
  <defs>
    <linearGradient id="shieldGradient" x1="256" y1="0" x2="256" y2="512" gradientUnits="userSpaceOnUse">
      <stop offset="0%" stop-color="#3b82f6" />
      <stop offset="100%" stop-color="#1d4ed8" />
    </linearGradient>
    <filter id="shadow" x="0" y="0" width="512" height="512" filterUnits="userSpaceOnUse">
      <feDropShadow dx="0" dy="4" stdDeviation="8" flood-color="#000000" flood-opacity="0.25"/>
    </filter>
  </defs>
  
  <!-- Shield Body -->
  <path d="M256 32C100 32 60 70 60 180C60 300 120 420 256 480C392 420 452 300 452 180C452 70 412 32 256 32Z" fill="url(#shieldGradient)" filter="url(#shadow)"/>
  
  <!-- Hosts File Content -->
  <g fill="#ffffff" fill-opacity="0.9">
    <!-- Row 1 -->
    <rect x="140" y="160" width="60" height="24" rx="8" />
    <rect x="220" y="160" width="150" height="24" rx="8" />
    
    <!-- Row 2 -->
    <rect x="140" y="220" width="60" height="24" rx="8" />
    <rect x="220" y="220" width="150" height="24" rx="8" />
    
    <!-- Row 3 -->
    <rect x="140" y="280" width="60" height="24" rx="8" />
    <rect x="220" y="280" width="150" height="24" rx="8" />

    <!-- Comment/Status Row (Dimmed) -->
    <rect x="140" y="340" width="230" height="24" rx="8" fill-opacity="0.5" />
  </g>
</svg>
